<?xml version="1.0" encoding="utf-8"?>
<!-- Generator: Adobe Illustrator 13.0.0, SVG Export Plug-In  -->
<!DOCTYPE svg PUBLIC "-//W3C//DTD SVG 1.1//EN" "http://www.w3.org/Graphics/SVG/1.1/DTD/svg11.dtd" [
	<!ENTITY ns_flows "http://ns.adobe.com/Flows/1.0/">
]>
<svg version="1.1"
	 xmlns="http://www.w3.org/2000/svg" xmlns:xlink="http://www.w3.org/1999/xlink" xmlns:a="http://ns.adobe.com/AdobeSVGViewerExtensions/3.0/"
	 x="0px" y="0px" width="196px" height="220px" viewBox="-2.875 -3.003 196 220" enable-background="new -2.875 -3.003 196 220"
	 xml:space="preserve">
<defs>
</defs>
<linearGradient id="SVGID_1_" gradientUnits="userSpaceOnUse" x1="95.5723" y1="0" x2="95.5723" y2="215.4165">
	<stop  offset="0" style="stop-color:#663300"/>
	<stop  offset="0.462" style="stop-color:#643100"/>
	<stop  offset="0.6642" style="stop-color:#5D2A00"/>
	<stop  offset="0.8157" style="stop-color:#501D00"/>
	<stop  offset="0.9411" style="stop-color:#3E0B00"/>
	<stop  offset="1" style="stop-color:#330000"/>
</linearGradient>
<path fill="url(#SVGID_1_)" d="M21.593,117.077c4.687-0.772,30.881-2.223,61.316-3.334c30.436-1.11,65.536,3.111,65.536,3.111
	c9.553,0,6.664-4.222,6.664-4.222s-21.771-7.109-78.865-5.776c-57.096,1.333-72.647,7.109-72.647,7.109
	c13.465,78.944,79.756,83.755,79.756,83.755s32.025,5.642,70.646-47.986c19.438-26.993,24.215-26.438,25.326-27.548
	c0,0,6.442-4.222,10.219,3.555c3.776,7.775,0.444,28.438-5.554,37.768c0,0-15.551,20.216-24.215-1.999
	c0,0,9.472,17.711,19.771,1.777c10.3-15.936,2.999-34.547,1.777-35.77c-1.222-1.222-3.332-9.33-18.661,14.663
	c0,0-33.323,61.761-79.31,59.539c-45.987-2.222-64.893-25.621-78.201-51.097c-7.775-14.885-4.443-36.88-4.443-36.88
	s9.553-7.331,55.542-8.664c45.986-1.333,85.308,1.333,104.857,5.332c0,0,7.775,1.777,7.775,3.999s-23.549,9.775-86.419,8.665
	c-62.872-1.111-74.62-7.999-76.646-7.999L21.593,117.077z M8.312,192.897c-6.776,0-4.999,4.517-4.999,4.517
	c21.915,18.884,71.314,17.995,71.314,17.995s58.51-0.97,86.863-13.773c6.887-3.11,8.22-8.664,8.22-8.664
	s-46.209,16.439-92.195,14.439c-45.987-1.999-58.984-6.554-63.316-10.886l4.74-4.739C13.828,193.637,8.312,192.897,8.312,192.897z
	 M66.692,20.661c-17.772,17.772,1.333,39.543,1.333,39.543c23.104,26.659,5.998,36.656,5.998,36.656s26.096-1.277,12.219-36.434
	c-6.665-16.884-25.77-13.551-7.998-45.764C78.245,14.662,72.357,14.996,66.692,20.661z M95.794,81.309
	c0,0,33.435-10.441,2.444-43.32c0,0-20.883-16.662,0.444-37.989c0,0-27.547,15.329-12.885,34.878c0,0,22.586,24.141,17.106,36.211
	C101.601,73.958,98.016,79.087,95.794,81.309z"/>
</svg>
