<?xml version="1.0" encoding="utf-8"?>
<!-- Generator: Adobe Illustrator 13.0.0, SVG Export Plug-In . SVG Version: 6.00 Build 14948)  -->
<!DOCTYPE svg PUBLIC "-//W3C//DTD SVG 1.1//EN" "http://www.w3.org/Graphics/SVG/1.1/DTD/svg11.dtd">
<svg version="1.1" id="Layer_1" xmlns="http://www.w3.org/2000/svg" xmlns:xlink="http://www.w3.org/1999/xlink" x="0px" y="0px"
	 width="180px" height="280px" viewBox="0 0 180 280" enable-background="new 0 0 180 280" xml:space="preserve">
<g>
	<linearGradient id="SVGID_1_" gradientUnits="userSpaceOnUse" x1="83.0361" y1="263.9834" x2="83.0361" y2="191.4297">
		<stop  offset="0" style="stop-color:#FFFFFF"/>
		<stop  offset="1" style="stop-color:#783F00"/>
	</linearGradient>
	<path fill="url(#SVGID_1_)" d="M80.984,263.983l1.146-0.114l5.939-2.109l-0.275-0.711l-0.986-0.206l0.94-0.366l-0.733-0.734
		l0.871-0.436v-0.253h-1.399l0.929-0.929v-0.446l-0.35-0.351l0.602-0.602l-0.241-0.814l0.504-0.298l-0.849-0.459l0.676-0.676
		l-0.493-0.493l0.229-1.743l-0.321-0.32l0.619-0.46l-1.192-0.458l1.078-0.802l-0.527-0.253l0.321-0.321l-0.963-0.688l1.101-1.101
		l0.138-0.482l-0.826-0.113l-0.207-1.629l0.734-2.156l-0.963-1.237l1.376-1.995l0.069-1.422l-0.562-0.562l-0.722-0.998l1.387-1.387
		l-0.585-0.769l-0.206-1.215l0.447-0.447l-0.539-0.562L88,232.499v-0.572h-0.917l0.504-1.377l-0.183-0.596H86.74l0.252-0.481
		l-0.481-0.481l0.963-0.757l-0.138-2.706l-0.871-0.871l1.009-1.238l-0.115-0.481l-0.482-0.138v-0.917l0.665-0.666l-0.367-0.664
		L88,219.452l-1.078-0.482l0.665-0.298l-0.711-0.711l0.436-0.229l-0.344-0.343l1.215-1.216l0.045-1.308h-2.431l1.376-0.55
		l0.184-1.536v-0.896l-0.39-1.123l0.665-1.284l-0.161-1.284l-0.711-0.711l0.688-0.688l-0.24-0.241v-0.791l0.396-0.396l-0.866-1.714
		l0.458-0.711l-0.963-0.665l0.413-0.413l-0.138-2.5l0.505-1.077l-0.138-0.366v-0.666H85.96l0.229-1.261h-0.711l0.986-0.986
		l-0.298-1.307l-0.481-0.482l0.848-0.848l-0.894-0.344v-0.597l-0.527,0.528l0.183,0.596l-0.757,0.757l0.574,0.848l-0.321,0.872
		l-1.078,0.16l0.596,0.596l-0.871,0.482l1.101,0.321l-0.871,0.298v0.573l1.719,0.161l-1.789,1.788l-0.183,0.872l0.183,0.183
		l-1.146,0.826l2.018,1.283l-1.467,1.193l-0.115,0.32l-0.917,0.642h2.225l-0.986,1.399v0.436l-0.367,1.009l0.436,0.757l-1.354,0.964
		l1.33,0.458l-1.605,1.674l0.78,0.207l-0.929,0.928l-0.539,0.264l-0.551,1.697l0.986,0.046l-0.137,1.72l-0.734,0.367l0.425,0.424
		l-0.562,0.608h1.307v0.779l1.697,0.482l-2.063,0.504l-0.963,0.963v1.031h1.697l-0.527,0.94l0.848,1.101l-1.376,0.298l-0.161,0.574
		l-1.124,0.803l-0.137,1.123l-0.321,0.115l-0.138,1.444l-0.229,1.375l-0.413,0.619l2.935,0.276l0.115,0.825l-1.973,0.733
		l0.653,0.654l-0.447,0.745h1.169v0.343H79.31l-0.849,1.147l1.262-0.16h0.275v0.527l-0.963,0.55l1.238,0.413l-0.699,0.699
		l0.355,0.103l-1.238,0.299l1.766,1.514l-1.33,0.963l1.055,0.229l1.926-0.207l-0.826,0.481l-0.183,0.734l-1.399,0.069l0.298,0.825
		l-1.124,0.505l-0.757,1.398l0.55,0.412v0.481h0.665l-0.344,0.666l0.94,0.16l-0.447,0.446h-1.64l0.711,1.159l0.757,0.298
		l-1.021,1.021l-0.126,0.723h0.688l-0.54,0.538l0.149,0.906h0.413l0.138,0.619h0.459c0,0,0.091,0.16,0.435,0.16
		c0.345,0,0.665,0,0.665,0l-0.161,0.711l-1.696,0.734l1.031,0.619h1.422l-2.637,1.489h1.421l-1.192,0.619l2.981-0.114l-1.055,0.825
		l0.963,0.253l-1.537,0.413l1.674,0.321l-2.293,0.848l1.903,1.216l-1.857,0.275l0.184,1.72l-0.298,0.298l0.836,0.837l-0.424,0.516
		l1.169,0.597l-0.447,0.446L80.984,263.983z"/>
	<linearGradient id="SVGID_2_" gradientUnits="userSpaceOnUse" x1="63.2964" y1="268.0928" x2="63.2964" y2="195.5381">
		<stop  offset="0" style="stop-color:#FFFFFF"/>
		<stop  offset="1" style="stop-color:#783F00"/>
	</linearGradient>
	<path fill="url(#SVGID_2_)" d="M61.245,268.093l1.146-0.115l5.939-2.109l-0.275-0.711l-0.986-0.206l0.94-0.367l-0.734-0.734
		l0.871-0.436v-0.252h-1.398l0.928-0.928v-0.448l-0.349-0.35l0.602-0.602l-0.241-0.813l0.504-0.3l-0.848-0.458l0.676-0.676
		l-0.493-0.494l0.229-1.742l-0.321-0.321l0.619-0.458l-1.192-0.459l1.078-0.803l-0.527-0.252l0.321-0.321l-0.963-0.688l1.101-1.102
		l0.138-0.48l-0.826-0.115l-0.207-1.628l0.734-2.155l-0.963-1.238l1.376-1.995l0.068-1.422l-0.562-0.562l-0.722-0.996l1.387-1.388
		l-0.584-0.769l-0.206-1.216l0.447-0.447l-0.539-0.562l0.848-0.366v-0.574h-0.917l0.504-1.375l-0.183-0.597H67l0.252-0.481
		l-0.482-0.481l0.963-0.758l-0.138-2.705l-0.871-0.872l1.009-1.238l-0.114-0.48l-0.482-0.139v-0.917l0.665-0.664l-0.367-0.666
		l0.826-1.101l-1.078-0.48l0.665-0.299l-0.711-0.71l0.436-0.23l-0.344-0.344l1.215-1.215l0.046-1.308H66.06l1.375-0.551l0.184-1.536
		v-0.894l-0.39-1.124l0.665-1.284l-0.161-1.284l-0.711-0.711l0.688-0.688l-0.241-0.241v-0.791l0.396-0.396L67,207.76l0.458-0.71
		l-0.963-0.665l0.413-0.412l-0.138-2.5l0.505-1.077l-0.138-0.368v-0.664h-0.917l0.229-1.262h-0.711l0.986-0.985l-0.298-1.309
		l-0.481-0.48l0.849-0.849l-0.895-0.344v-0.597l-0.528,0.527l0.184,0.596l-0.757,0.757l0.573,0.85l-0.32,0.87l-1.078,0.161
		l0.596,0.597l-0.871,0.48l1.101,0.321l-0.871,0.298v0.574l1.719,0.16l-1.789,1.789l-0.184,0.871l0.184,0.183l-1.146,0.826
		l2.018,1.284l-1.467,1.192l-0.115,0.321l-0.917,0.643h2.224l-0.986,1.398v0.436l-0.367,1.009l0.436,0.757l-1.353,0.963l1.33,0.459
		l-1.605,1.674l0.779,0.206l-0.929,0.929l-0.539,0.265l-0.55,1.696l0.986,0.046l-0.137,1.72l-0.734,0.366l0.425,0.425l-0.562,0.607
		h1.307v0.78l1.697,0.481l-2.064,0.504l-0.963,0.964v1.032h1.697l-0.528,0.94l0.849,1.1l-1.376,0.299l-0.16,0.572l-1.124,0.803
		l-0.137,1.123l-0.321,0.115l-0.138,1.444l-0.229,1.377l-0.413,0.619l2.935,0.274l0.115,0.826l-1.972,0.733l0.653,0.653
		l-0.447,0.745h1.169v0.345h-1.628l-0.849,1.146l1.261-0.161h0.275v0.527l-0.963,0.551l1.238,0.413l-0.7,0.698l0.355,0.104
		l-1.238,0.298l1.765,1.513l-1.33,0.964l1.055,0.229l1.926-0.206l-0.826,0.48l-0.183,0.734l-1.399,0.068l0.298,0.826l-1.124,0.504
		l-0.757,1.399l0.55,0.413v0.481h0.665l-0.344,0.664l0.94,0.161l-0.447,0.447h-1.64l0.711,1.157l0.757,0.299l-1.021,1.021
		l-0.126,0.722h0.688l-0.539,0.539l0.149,0.906h0.413l0.137,0.619h0.459c0,0,0.092,0.161,0.436,0.161s0.665,0,0.665,0l-0.161,0.71
		l-1.697,0.733l1.032,0.619h1.422l-2.637,1.491h1.421l-1.192,0.619l2.981-0.115l-1.055,0.826l0.963,0.251l-1.537,0.413l1.674,0.321
		l-2.293,0.849l1.903,1.215l-1.857,0.275l0.183,1.721l-0.298,0.298l0.837,0.837l-0.424,0.517l1.169,0.596l-0.447,0.447
		L61.245,268.093z"/>
	<linearGradient id="SVGID_3_" gradientUnits="userSpaceOnUse" x1="103.6592" y1="266.625" x2="103.6592" y2="194.0713">
		<stop  offset="0" style="stop-color:#FFFFFF"/>
		<stop  offset="1" style="stop-color:#783F00"/>
	</linearGradient>
	<path fill="url(#SVGID_3_)" d="M101.607,266.625l1.146-0.115l5.938-2.109l-0.274-0.711l-0.986-0.206l0.94-0.367l-0.734-0.733
		l0.872-0.436v-0.253h-1.399l0.929-0.928v-0.447l-0.35-0.351l0.602-0.603l-0.24-0.813l0.504-0.298l-0.849-0.459l0.677-0.677
		l-0.492-0.492l0.229-1.742l-0.32-0.321l0.619-0.459l-1.193-0.458l1.078-0.803l-0.527-0.253l0.321-0.321l-0.964-0.688l1.101-1.101
		l0.139-0.482l-0.826-0.114l-0.206-1.628l0.733-2.155l-0.963-1.239l1.376-1.994l0.068-1.422l-0.562-0.562l-0.722-0.998l1.387-1.387
		l-0.585-0.769l-0.206-1.215l0.447-0.447l-0.539-0.562l0.849-0.368v-0.572h-0.918l0.506-1.376l-0.185-0.597h-0.664l0.251-0.481
		l-0.481-0.481l0.964-0.757l-0.138-2.706l-0.871-0.871l1.009-1.238l-0.114-0.482l-0.482-0.137v-0.917l0.665-0.665l-0.366-0.665
		l0.825-1.102l-1.078-0.481l0.666-0.298l-0.712-0.711l0.436-0.229l-0.343-0.343l1.215-1.217l0.045-1.307h-2.43l1.376-0.55
		l0.184-1.536v-0.895l-0.39-1.124l0.664-1.284l-0.16-1.284l-0.711-0.711l0.688-0.688l-0.24-0.24v-0.792l0.396-0.396l-0.865-1.714
		l0.458-0.711l-0.963-0.665l0.413-0.413l-0.139-2.5l0.505-1.077l-0.138-0.367v-0.664h-0.917l0.229-1.262h-0.711l0.986-0.985
		l-0.299-1.308l-0.481-0.481l0.849-0.849l-0.894-0.344v-0.596l-0.528,0.527l0.184,0.596l-0.757,0.756l0.573,0.849l-0.32,0.872
		l-1.079,0.16l0.598,0.596l-0.872,0.482l1.101,0.32l-0.871,0.298v0.574l1.72,0.16l-1.789,1.789l-0.184,0.871l0.184,0.184
		l-1.146,0.826l2.018,1.283l-1.468,1.192l-0.115,0.321l-0.917,0.643h2.225l-0.986,1.398v0.436l-0.366,1.009l0.436,0.757
		l-1.354,0.964l1.33,0.458l-1.605,1.674l0.78,0.207l-0.93,0.928l-0.538,0.264l-0.55,1.698l0.985,0.045l-0.138,1.72l-0.734,0.367
		l0.425,0.424l-0.562,0.608h1.307v0.779l1.697,0.481l-2.063,0.504l-0.964,0.964v1.032h1.697l-0.527,0.939l0.849,1.101l-1.376,0.299
		L101.469,227l-1.123,0.803l-0.137,1.123l-0.321,0.115l-0.139,1.444l-0.229,1.376l-0.412,0.619l2.936,0.274l0.114,0.826
		l-1.972,0.733l0.653,0.653l-0.447,0.746h1.169v0.344h-1.628l-0.848,1.146l1.261-0.16h0.275v0.527l-0.963,0.55l1.238,0.413
		l-0.7,0.699l0.355,0.104l-1.238,0.298l1.766,1.514l-1.33,0.963l1.056,0.229l1.926-0.206l-0.825,0.48l-0.184,0.734l-1.399,0.068
		l0.299,0.825l-1.123,0.506l-0.758,1.398l0.551,0.413v0.48h0.665l-0.345,0.666l0.94,0.16l-0.447,0.447h-1.639l0.711,1.157
		l0.756,0.299l-1.02,1.021l-0.127,0.723h0.688l-0.54,0.539l0.15,0.904h0.413l0.137,0.619h0.459c0,0,0.092,0.161,0.435,0.161
		c0.345,0,0.666,0,0.666,0l-0.16,0.711l-1.697,0.734l1.031,0.619h1.422l-2.637,1.49h1.422l-1.192,0.619l2.981-0.115l-1.056,0.826
		l0.963,0.252l-1.536,0.413l1.674,0.321l-2.293,0.848l1.903,1.215l-1.857,0.276l0.184,1.72l-0.298,0.298l0.836,0.837l-0.424,0.516
		l1.17,0.597l-0.447,0.447L101.607,266.625z"/>
	<linearGradient id="SVGID_4_" gradientUnits="userSpaceOnUse" x1="124.4199" y1="272.2783" x2="124.4199" y2="199.7227">
		<stop  offset="0" style="stop-color:#FFFFFF"/>
		<stop  offset="1" style="stop-color:#783F00"/>
	</linearGradient>
	<path fill="url(#SVGID_4_)" d="M122.367,272.278l1.146-0.115l5.939-2.11l-0.275-0.711l-0.985-0.206l0.939-0.366l-0.733-0.734
		l0.871-0.436v-0.252h-1.398l0.929-0.93v-0.446l-0.35-0.35l0.603-0.603l-0.241-0.814l0.505-0.298l-0.849-0.458l0.676-0.677
		l-0.493-0.493l0.229-1.743l-0.321-0.32l0.619-0.459l-1.191-0.459l1.077-0.802l-0.527-0.253l0.321-0.32l-0.963-0.688l1.101-1.101
		l0.137-0.481l-0.825-0.114l-0.207-1.628l0.734-2.156l-0.963-1.238l1.375-1.995l0.07-1.422l-0.562-0.562l-0.723-0.998l1.388-1.387
		l-0.585-0.769l-0.207-1.215l0.447-0.447l-0.538-0.562l0.849-0.367v-0.573h-0.917l0.504-1.376l-0.184-0.597h-0.665l0.253-0.481
		l-0.481-0.481l0.963-0.757l-0.139-2.705l-0.871-0.872l1.01-1.238l-0.115-0.481l-0.481-0.138v-0.917l0.665-0.665l-0.367-0.665
		l0.826-1.101l-1.078-0.481l0.665-0.299l-0.711-0.711l0.437-0.229l-0.345-0.344l1.215-1.216l0.047-1.307h-2.432l1.376-0.551
		l0.184-1.536v-0.895l-0.39-1.123l0.665-1.285l-0.16-1.283l-0.711-0.711l0.688-0.688l-0.241-0.241v-0.791l0.396-0.396l-0.866-1.714
		l0.459-0.711l-0.964-0.665l0.413-0.413l-0.137-2.499l0.504-1.078l-0.138-0.366v-0.666h-0.917l0.229-1.26h-0.711l0.985-0.987
		l-0.298-1.307l-0.48-0.481l0.848-0.849l-0.895-0.344v-0.597l-0.527,0.528l0.184,0.596l-0.757,0.757l0.573,0.848l-0.321,0.872
		l-1.077,0.16l0.596,0.597l-0.872,0.481l1.102,0.321l-0.872,0.298v0.573l1.72,0.161l-1.788,1.788l-0.183,0.872l0.183,0.183
		l-1.146,0.826l2.018,1.283l-1.467,1.193l-0.115,0.321l-0.917,0.641h2.225l-0.986,1.399v0.437l-0.367,1.009l0.436,0.756
		l-1.353,0.964l1.33,0.458l-1.605,1.674l0.779,0.207l-0.928,0.929l-0.539,0.263l-0.551,1.697l0.986,0.046l-0.138,1.721l-0.733,0.366
		l0.424,0.424l-0.562,0.608h1.307v0.779l1.697,0.482l-2.063,0.504l-0.964,0.963v1.031h1.697l-0.527,0.94l0.849,1.101l-1.376,0.299
		l-0.16,0.573l-1.124,0.803l-0.138,1.123l-0.321,0.115l-0.137,1.444l-0.229,1.376l-0.413,0.62l2.935,0.274l0.115,0.825l-1.973,0.734
		l0.653,0.653l-0.446,0.745h1.17v0.345h-1.629l-0.849,1.146l1.262-0.16h0.275v0.527l-0.964,0.551l1.238,0.412l-0.698,0.699
		l0.355,0.104l-1.239,0.299l1.767,1.513l-1.33,0.964l1.054,0.229l1.926-0.207l-0.825,0.482l-0.184,0.734l-1.398,0.068l0.299,0.825
		l-1.124,0.505l-0.757,1.398l0.551,0.412v0.482h0.664l-0.343,0.665l0.94,0.16l-0.447,0.447h-1.641l0.711,1.158l0.757,0.298
		l-1.021,1.021l-0.126,0.723h0.688l-0.538,0.538l0.148,0.906h0.413l0.138,0.619h0.458c0,0,0.092,0.16,0.437,0.16
		c0.344,0,0.664,0,0.664,0l-0.16,0.711l-1.696,0.734l1.031,0.619h1.423l-2.639,1.491h1.422l-1.191,0.619l2.98-0.115l-1.055,0.825
		l0.963,0.252l-1.536,0.413l1.675,0.321l-2.294,0.849l1.903,1.215l-1.858,0.275l0.185,1.72l-0.298,0.299l0.837,0.836l-0.424,0.516
		l1.169,0.597l-0.447,0.447L122.367,272.278z"/>
	<linearGradient id="SVGID_5_" gradientUnits="userSpaceOnUse" x1="42.8457" y1="274.2119" x2="42.8457" y2="201.6572">
		<stop  offset="0" style="stop-color:#FFFFFF"/>
		<stop  offset="1" style="stop-color:#783F00"/>
	</linearGradient>
	<path fill="url(#SVGID_5_)" d="M40.793,274.212l1.146-0.115l5.939-2.109l-0.275-0.711l-0.986-0.207l0.94-0.366l-0.734-0.733
		l0.871-0.437v-0.252h-1.398l0.929-0.929v-0.447l-0.35-0.35l0.602-0.602l-0.241-0.814l0.504-0.298l-0.848-0.459l0.677-0.676
		l-0.494-0.493l0.229-1.743l-0.321-0.321l0.619-0.458l-1.193-0.459l1.078-0.803l-0.527-0.253l0.321-0.319l-0.963-0.689l1.101-1.1
		l0.138-0.481l-0.826-0.115l-0.207-1.628l0.734-2.155l-0.963-1.238l1.376-1.996l0.068-1.421l-0.562-0.562l-0.723-0.997l1.387-1.388
		l-0.584-0.769l-0.207-1.215l0.447-0.447l-0.539-0.562l0.848-0.366v-0.574h-0.917l0.504-1.375l-0.183-0.598h-0.665l0.252-0.48
		l-0.481-0.481l0.963-0.757l-0.138-2.706l-0.871-0.871l1.009-1.238l-0.114-0.481l-0.482-0.139v-0.917l0.665-0.664l-0.367-0.666
		l0.825-1.1l-1.078-0.481l0.665-0.299l-0.711-0.711l0.436-0.229l-0.344-0.345l1.216-1.215l0.045-1.307h-2.431l1.376-0.551
		l0.184-1.537v-0.894l-0.39-1.124l0.665-1.284l-0.161-1.284l-0.711-0.711l0.688-0.688l-0.241-0.24v-0.791l0.395-0.396l-0.865-1.713
		l0.458-0.711l-0.963-0.666l0.412-0.412l-0.137-2.499l0.504-1.078l-0.138-0.367v-0.665H45.77l0.229-1.261h-0.711l0.986-0.986
		l-0.298-1.307l-0.482-0.481l0.849-0.849l-0.895-0.345v-0.596l-0.527,0.527l0.184,0.596l-0.757,0.758l0.573,0.849l-0.321,0.871
		l-1.078,0.159l0.596,0.598l-0.871,0.481l1.101,0.32l-0.871,0.299v0.572l1.72,0.161l-1.789,1.788l-0.184,0.872l0.184,0.184
		l-1.147,0.825l2.018,1.284l-1.467,1.192l-0.115,0.321l-0.917,0.642h2.224l-0.985,1.399v0.436l-0.367,1.009l0.436,0.757
		l-1.353,0.963l1.33,0.458l-1.605,1.675l0.78,0.206l-0.929,0.93l-0.54,0.263l-0.55,1.697l0.986,0.046l-0.137,1.72l-0.734,0.366
		l0.424,0.426l-0.562,0.606h1.307v0.779l1.697,0.482l-2.064,0.505l-0.963,0.962v1.032h1.697l-0.527,0.94l0.849,1.102l-1.376,0.298
		l-0.161,0.572l-1.124,0.803l-0.138,1.124l-0.321,0.114l-0.138,1.445l-0.229,1.376l-0.413,0.619l2.935,0.274l0.115,0.826
		l-1.972,0.733l0.654,0.653l-0.447,0.745h1.169v0.345H39.12l-0.849,1.146l1.261-0.161h0.275v0.528l-0.963,0.55l1.238,0.413
		l-0.7,0.699l0.356,0.104l-1.238,0.298l1.765,1.514l-1.33,0.963l1.055,0.229l1.926-0.206l-0.826,0.482l-0.183,0.733l-1.399,0.068
		l0.298,0.826l-1.124,0.504l-0.756,1.398l0.55,0.413v0.482h0.665l-0.344,0.664l0.94,0.161l-0.448,0.447h-1.639l0.71,1.158
		l0.757,0.298l-1.021,1.021l-0.126,0.722h0.688l-0.539,0.539l0.149,0.906h0.413l0.138,0.619h0.458c0,0,0.092,0.16,0.436,0.16
		c0.344,0,0.665,0,0.665,0l-0.16,0.711l-1.697,0.733l1.032,0.619h1.421l-2.637,1.491h1.421l-1.192,0.619l2.981-0.115l-1.055,0.826
		l0.963,0.252l-1.537,0.412l1.674,0.321l-2.293,0.849l1.903,1.216l-1.857,0.274l0.184,1.72l-0.298,0.299l0.837,0.837l-0.424,0.516
		l1.17,0.597l-0.447,0.447L40.793,274.212z"/>
</g>
<linearGradient id="SVGID_6_" gradientUnits="userSpaceOnUse" x1="11.5806" y1="134.373" x2="169.4209" y2="134.373">
	<stop  offset="0" style="stop-color:#663300"/>
	<stop  offset="1" style="stop-color:#663300"/>
</linearGradient>
<path fill="url(#SVGID_6_)" d="M16.387,102.846c1.673,0,11.374,5.687,63.29,6.605c51.917,0.917,71.362-5.321,71.362-7.155
	c0-1.834-6.421-3.302-6.421-3.302c-16.144-3.303-48.614-5.504-86.588-4.403s-45.863,7.155-45.863,7.155s-2.751,18.162,3.669,30.453
	c10.989,21.037,26.6,40.359,64.574,42.193c37.974,1.835,65.492-49.164,65.492-49.164c12.658-19.813,14.401-13.117,15.41-12.108
	s7.037,16.377-1.469,29.535c-8.505,13.159-16.327-1.466-16.327-1.466c7.155,18.344,19.996,1.65,19.996,1.65
	c4.954-7.705,7.705-24.766,4.587-31.187c-3.119-6.421-8.438-2.936-8.438-2.936c-0.917,0.917-4.862,0.459-20.913,22.748
	C106.856,175.748,80.41,171.09,80.41,171.09s-54.74-3.972-65.858-69.161c0,0,12.841-4.77,59.988-5.87
	c47.146-1.101,65.125,4.77,65.125,4.77s2.385,3.486-5.503,3.486c0,0-28.986-3.486-54.118-2.568
	c-25.133,0.917-46.763,2.115-50.632,2.751L16.387,102.846z"/>
<path fill="#330000" d="M27.219,166.188l-3.914,3.914c3.578,3.577,14.309,7.339,52.284,8.989
	c37.974,1.651,76.132-11.924,76.132-11.924s-1.101,4.586-6.788,7.154c-23.413,10.573-71.729,11.374-71.729,11.374
	s-40.792,0.734-58.887-14.859c0,0-1.468-3.73,4.127-3.73C18.444,167.106,23,167.718,27.219,166.188z"/>
<linearGradient id="SVGID_7_" gradientUnits="userSpaceOnUse" x1="73.2778" y1="19.9277" x2="73.2778" y2="87.8037">
	<stop  offset="0" style="stop-color:#663300"/>
	<stop  offset="0.4298" style="stop-color:#643100"/>
	<stop  offset="0.6421" style="stop-color:#5C2900"/>
	<stop  offset="0.8067" style="stop-color:#4F1C00"/>
	<stop  offset="0.946" style="stop-color:#3D0A00"/>
	<stop  offset="1" style="stop-color:#330000"/>
</linearGradient>
<path fill="url(#SVGID_7_)" d="M76.191,19.928c-14.676,26.6,1.101,23.848,6.604,37.791c11.459,29.031-10.089,30.085-10.089,30.085
	s14.125-8.255-4.954-30.269c0,0-15.776-17.978-1.101-32.654C71.33,20.203,76.191,19.928,76.191,19.928z"/>
<linearGradient id="SVGID_8_" gradientUnits="userSpaceOnUse" x1="91.2275" y1="7.8198" x2="91.2275" y2="74.9619">
	<stop  offset="0" style="stop-color:#663300"/>
	<stop  offset="0.4298" style="stop-color:#643100"/>
	<stop  offset="0.6421" style="stop-color:#5C2900"/>
	<stop  offset="0.8067" style="stop-color:#4F1C00"/>
	<stop  offset="0.946" style="stop-color:#3D0A00"/>
	<stop  offset="1" style="stop-color:#330000"/>
</linearGradient>
<path fill="url(#SVGID_8_)" d="M90.685,74.962c0,0,27.608-8.622,2.018-35.772c0,0-17.245-13.759,0.366-31.37
	c0,0-22.748,12.658-10.64,28.801c0,0,18.65,19.935,14.125,29.902C95.479,68.892,92.519,73.128,90.685,74.962z"/>
</svg>
