<?xml version="1.0" encoding="utf-8"?>
<!-- Generator: Adobe Illustrator 13.0.0, SVG Export Plug-In . SVG Version: 6.00 Build 14948)  -->
<!DOCTYPE svg PUBLIC "-//W3C//DTD SVG 1.1//EN" "http://www.w3.org/Graphics/SVG/1.1/DTD/svg11.dtd">
<svg version="1.1" id="Layer_1" xmlns="http://www.w3.org/2000/svg" xmlns:xlink="http://www.w3.org/1999/xlink" x="0px" y="0px"
	 width="196px" height="220px" viewBox="-2.875 -3.003 196 220" enable-background="new -2.875 -3.003 196 220"
	 xml:space="preserve">
<g>
	<linearGradient id="SVGID_1_" gradientUnits="userSpaceOnUse" x1="91.0161" y1="224.584" x2="91.0161" y2="156.6924">
		<stop  offset="0" style="stop-color:#FFFFFF"/>
		<stop  offset="1" style="stop-color:#783F00"/>
	</linearGradient>
	<path fill="url(#SVGID_1_)" d="M89.096,224.584l1.072-0.106l5.558-1.975l-0.257-0.664l-0.922-0.194l0.879-0.344l-0.687-0.686
		l0.815-0.409v-0.236h-1.309l0.868-0.868v-0.418l-0.327-0.328l0.564-0.563l-0.226-0.76l0.473-0.281l-0.794-0.429l0.633-0.633
		l-0.461-0.461l0.214-1.631l-0.301-0.3l0.58-0.43l-1.115-0.429l1.008-0.751l-0.494-0.235l0.3-0.302l-0.901-0.644l1.03-1.03
		l0.129-0.45l-0.772-0.108l-0.193-1.522l0.686-2.018l-0.901-1.159l1.287-1.866l0.064-1.331l-0.526-0.524l-0.675-0.934l1.297-1.298
		l-0.547-0.72l-0.193-1.138l0.418-0.418l-0.504-0.525l0.794-0.344v-0.535h-0.858l0.472-1.289l-0.172-0.558h-0.622l0.236-0.449
		l-0.451-0.452l0.901-0.707l-0.129-2.533l-0.815-0.814l0.944-1.159l-0.107-0.45l-0.451-0.129v-0.858l0.622-0.622l-0.343-0.622
		l0.773-1.031l-1.008-0.449l0.622-0.28l-0.666-0.664l0.407-0.215l-0.321-0.322l1.137-1.139l0.043-1.221h-2.274l1.287-0.515
		l0.172-1.438v-0.838l-0.365-1.051l0.622-1.202l-0.15-1.201l-0.665-0.665l0.644-0.644l-0.226-0.227v-0.738l0.37-0.371l-0.809-1.604
		l0.429-0.664l-0.901-0.624l0.387-0.386l-0.129-2.339l0.472-1.009l-0.129-0.344v-0.62h-0.858l0.215-1.181h-0.666l0.923-0.925
		l-0.279-1.222l-0.451-0.45l0.794-0.794l-0.837-0.322v-0.557l-0.494,0.491l0.171,0.559l-0.708,0.709l0.536,0.793l-0.3,0.816
		l-1.008,0.149l0.558,0.558l-0.815,0.451l1.03,0.3l-0.815,0.28v0.536l1.608,0.15l-1.673,1.674l-0.173,0.814l0.173,0.172
		l-1.073,0.772l1.889,1.202l-1.374,1.115l-0.107,0.301l-0.858,0.601h2.081l-0.922,1.31v0.406l-0.344,0.944l0.407,0.709l-1.265,0.9
		l1.245,0.43l-1.502,1.566l0.729,0.193l-0.869,0.87l-0.504,0.246l-0.516,1.588l0.923,0.042l-0.128,1.609l-0.687,0.344l0.396,0.397
		l-0.525,0.569h1.223v0.729l1.588,0.449l-1.932,0.473l-0.901,0.902v0.965h1.587l-0.493,0.88l0.794,1.03l-1.288,0.279l-0.15,0.536
		l-1.052,0.751l-0.128,1.052l-0.301,0.106l-0.128,1.353l-0.215,1.287l-0.385,0.58l2.747,0.258l0.107,0.772l-1.846,0.687l0.612,0.611
		l-0.418,0.697h1.094v0.321h-1.523l-0.794,1.074l1.18-0.151h0.257v0.493l-0.9,0.516l1.158,0.387l-0.654,0.654l0.332,0.097
		l-1.159,0.278l1.652,1.416l-1.244,0.902l0.986,0.214l1.803-0.192l-0.771,0.45l-0.172,0.687l-1.309,0.063l0.278,0.773l-1.051,0.471
		l-0.708,1.31l0.514,0.386v0.452h0.622l-0.321,0.622l0.879,0.15l-0.418,0.418h-1.534l0.665,1.083l0.708,0.279l-0.955,0.956
		l-0.118,0.676H87.1l-0.504,0.503l0.139,0.848h0.386l0.128,0.579h0.43c0,0,0.085,0.15,0.408,0.15c0.321,0,0.622,0,0.622,0
		l-0.15,0.666l-1.587,0.687l0.965,0.579h1.332l-2.468,1.395h1.33l-1.116,0.58l2.79-0.108l-0.987,0.772l0.901,0.236l-1.438,0.387
		l1.566,0.301l-2.146,0.793l1.781,1.137l-1.738,0.258l0.172,1.611l-0.279,0.278l0.784,0.783l-0.397,0.482l1.094,0.558l-0.418,0.419
		L89.096,224.584z"/>
	<linearGradient id="SVGID_2_" gradientUnits="userSpaceOnUse" x1="72.5444" y1="228.4277" x2="72.5444" y2="160.5361">
		<stop  offset="0" style="stop-color:#FFFFFF"/>
		<stop  offset="1" style="stop-color:#783F00"/>
	</linearGradient>
	<path fill="url(#SVGID_2_)" d="M70.625,228.428l1.072-0.106l5.558-1.975l-0.257-0.664l-0.923-0.193l0.879-0.344l-0.687-0.687
		l0.815-0.407v-0.237h-1.309l0.87-0.867v-0.419l-0.328-0.328l0.563-0.563l-0.225-0.761l0.472-0.28l-0.794-0.43l0.632-0.632
		l-0.46-0.46l0.214-1.634l-0.3-0.299l0.58-0.429l-1.116-0.43l1.008-0.751l-0.494-0.235l0.3-0.301l-0.901-0.644l1.031-1.03
		l0.128-0.45l-0.773-0.108l-0.193-1.523l0.687-2.018l-0.901-1.157l1.288-1.867l0.064-1.33l-0.526-0.527l-0.676-0.933l1.298-1.298
		l-0.548-0.719l-0.193-1.137l0.418-0.419l-0.504-0.526l0.794-0.344v-0.535h-0.858l0.472-1.287l-0.172-0.56H76.01l0.236-0.449
		l-0.451-0.451l0.901-0.708l-0.128-2.532l-0.815-0.815l0.943-1.158l-0.107-0.451l-0.45-0.128v-0.859l0.622-0.622l-0.343-0.622
		l0.772-1.029l-1.009-0.451l0.623-0.279l-0.665-0.664l0.407-0.215l-0.322-0.323l1.137-1.136l0.043-1.225H75.13l1.288-0.514
		l0.171-1.438v-0.838l-0.364-1.05l0.622-1.203l-0.15-1.2l-0.665-0.665l0.643-0.645l-0.225-0.225v-0.74l0.37-0.372l-0.81-1.604
		l0.429-0.664l-0.902-0.623l0.387-0.385l-0.129-2.34l0.473-1.009l-0.128-0.344v-0.621H75.28l0.214-1.182H74.83l0.923-0.923
		l-0.28-1.222l-0.45-0.45l0.794-0.795l-0.837-0.321v-0.558l-0.493,0.492l0.172,0.558l-0.708,0.708l0.537,0.795l-0.301,0.815
		l-1.008,0.149l0.558,0.559l-0.815,0.451l1.03,0.3l-0.815,0.279v0.535l1.609,0.152l-1.673,1.672l-0.172,0.816l0.172,0.171
		l-1.073,0.772l1.888,1.202l-1.373,1.115l-0.107,0.302l-0.858,0.6h2.081l-0.923,1.311v0.406l-0.343,0.945l0.408,0.708l-1.266,0.9
		l1.244,0.429l-1.501,1.566l0.729,0.194l-0.87,0.868l-0.504,0.248l-0.515,1.588l0.924,0.042l-0.129,1.609l-0.687,0.344l0.397,0.396
		l-0.525,0.57h1.223v0.728l1.587,0.452l-1.93,0.472l-0.902,0.9v0.965h1.588l-0.494,0.881l0.794,1.029l-1.288,0.28l-0.15,0.535
		l-1.052,0.752l-0.128,1.051l-0.3,0.106l-0.129,1.353l-0.214,1.288l-0.386,0.579l2.747,0.258l0.107,0.772l-1.846,0.686l0.612,0.613
		l-0.418,0.697h1.095v0.321h-1.524l-0.793,1.073l1.18-0.15h0.257v0.493l-0.901,0.516l1.159,0.386l-0.654,0.655l0.333,0.097
		l-1.159,0.277l1.652,1.417l-1.245,0.902l0.987,0.214l1.802-0.193l-0.772,0.451l-0.171,0.686l-1.31,0.064l0.279,0.772l-1.051,0.473
		l-0.708,1.31l0.515,0.385v0.451h0.622l-0.322,0.622l0.879,0.151l-0.418,0.416h-1.535l0.666,1.085l0.708,0.279l-0.955,0.955
		l-0.118,0.676h0.644l-0.505,0.505l0.14,0.847h0.386l0.128,0.58h0.429c0,0,0.085,0.149,0.408,0.149s0.622,0,0.622,0l-0.15,0.665
		l-1.588,0.688l0.966,0.578h1.331l-2.467,1.396h1.33l-1.116,0.579l2.79-0.108l-0.987,0.773l0.902,0.236l-1.438,0.387l1.566,0.3
		l-2.146,0.795l1.782,1.137l-1.739,0.258l0.172,1.609l-0.279,0.278l0.784,0.783l-0.397,0.482l1.095,0.559l-0.418,0.419
		L70.625,228.428z"/>
	<linearGradient id="SVGID_3_" gradientUnits="userSpaceOnUse" x1="110.3145" y1="227.0557" x2="110.3145" y2="159.1621">
		<stop  offset="0" style="stop-color:#FFFFFF"/>
		<stop  offset="1" style="stop-color:#783F00"/>
	</linearGradient>
	<path fill="url(#SVGID_3_)" d="M108.395,227.056l1.072-0.107l5.559-1.975l-0.26-0.664l-0.922-0.194l0.879-0.343l-0.687-0.687
		l0.815-0.408v-0.235h-1.309l0.869-0.868v-0.419l-0.326-0.328l0.562-0.563l-0.227-0.762l0.473-0.279l-0.793-0.43l0.632-0.631
		l-0.461-0.462l0.215-1.632l-0.3-0.3l0.578-0.429l-1.115-0.43l1.01-0.751l-0.495-0.235l0.301-0.301l-0.9-0.644l1.029-1.031
		l0.128-0.449l-0.771-0.108l-0.192-1.523l0.687-2.018l-0.902-1.157l1.288-1.867l0.063-1.33l-0.524-0.526l-0.677-0.935l1.297-1.298
		l-0.545-0.719l-0.194-1.136l0.42-0.419l-0.506-0.526l0.795-0.344v-0.536h-0.858l0.473-1.288l-0.173-0.558h-0.622l0.236-0.45
		l-0.45-0.45l0.9-0.709l-0.129-2.531l-0.815-0.815l0.944-1.157l-0.106-0.452l-0.452-0.128v-0.859l0.622-0.622l-0.342-0.622
		l0.772-1.03l-1.009-0.45l0.623-0.279l-0.667-0.664l0.408-0.215l-0.321-0.323l1.137-1.137l0.044-1.223h-2.275l1.288-0.516
		l0.172-1.438v-0.836l-0.365-1.053l0.622-1.202l-0.15-1.2l-0.664-0.666l0.644-0.644l-0.227-0.226v-0.74l0.371-0.371l-0.811-1.604
		l0.43-0.665l-0.902-0.621l0.387-0.386l-0.128-2.34l0.471-1.009l-0.129-0.344v-0.622h-0.858l0.215-1.181H112.6l0.922-0.922
		l-0.278-1.224l-0.451-0.449l0.795-0.795l-0.837-0.32v-0.56l-0.494,0.493l0.172,0.558l-0.708,0.709l0.536,0.793l-0.3,0.816
		l-1.01,0.149l0.559,0.559l-0.815,0.451l1.03,0.3l-0.815,0.278v0.536l1.609,0.152l-1.674,1.672l-0.173,0.816l0.173,0.171
		l-1.072,0.772l1.887,1.201l-1.373,1.117l-0.106,0.301l-0.859,0.6h2.082l-0.922,1.311v0.406l-0.344,0.943l0.406,0.71l-1.266,0.9
		l1.245,0.429l-1.502,1.566l0.73,0.192l-0.869,0.869l-0.505,0.249l-0.515,1.588l0.923,0.042l-0.129,1.609l-0.686,0.344l0.396,0.396
		l-0.525,0.57h1.222v0.728l1.589,0.451l-1.933,0.472l-0.9,0.902v0.964h1.588l-0.493,0.881l0.794,1.029l-1.287,0.279l-0.15,0.536
		l-1.052,0.752l-0.129,1.051l-0.3,0.107l-0.129,1.352l-0.215,1.288l-0.386,0.579l2.746,0.258l0.107,0.772l-1.845,0.686l0.61,0.613
		l-0.417,0.697h1.095v0.32h-1.524l-0.794,1.073l1.18-0.149h0.257v0.494l-0.899,0.515l1.157,0.386l-0.653,0.655l0.333,0.096
		l-1.159,0.278l1.651,1.417l-1.244,0.9l0.987,0.215l1.802-0.192l-0.772,0.45l-0.171,0.688l-1.309,0.062l0.277,0.772l-1.051,0.472
		l-0.708,1.311l0.516,0.386v0.45h0.621l-0.321,0.621l0.881,0.152l-0.42,0.416h-1.533l0.664,1.085l0.709,0.279l-0.955,0.955
		l-0.117,0.676h0.644l-0.504,0.504l0.139,0.849h0.386l0.128,0.578h0.432c0,0,0.085,0.15,0.407,0.15c0.32,0,0.622,0,0.622,0
		l-0.15,0.665l-1.588,0.688l0.965,0.578h1.331l-2.469,1.396h1.331l-1.116,0.579l2.789-0.108l-0.987,0.773l0.902,0.236l-1.438,0.387
		l1.565,0.3l-2.145,0.795l1.781,1.136l-1.738,0.258l0.171,1.609l-0.278,0.279l0.783,0.784l-0.397,0.48l1.095,0.56l-0.419,0.419
		L108.395,227.056z"/>
	<linearGradient id="SVGID_4_" gradientUnits="userSpaceOnUse" x1="129.7412" y1="232.3447" x2="129.7412" y2="164.4512">
		<stop  offset="0" style="stop-color:#FFFFFF"/>
		<stop  offset="1" style="stop-color:#783F00"/>
	</linearGradient>
	<path fill="url(#SVGID_4_)" d="M127.821,232.345l1.071-0.108l5.558-1.973l-0.258-0.666l-0.921-0.192l0.879-0.344l-0.688-0.687
		l0.816-0.407v-0.236h-1.31l0.87-0.868v-0.42l-0.328-0.325l0.563-0.564l-0.226-0.763l0.472-0.279l-0.793-0.428l0.634-0.634
		l-0.462-0.461l0.214-1.63l-0.299-0.302l0.577-0.429l-1.115-0.428l1.009-0.753l-0.494-0.236l0.301-0.301l-0.9-0.643l1.029-1.03
		l0.129-0.45l-0.772-0.107l-0.193-1.523l0.688-2.018l-0.902-1.158l1.288-1.867l0.063-1.331l-0.524-0.525l-0.678-0.934l1.299-1.299
		l-0.546-0.718l-0.194-1.137l0.42-0.419l-0.506-0.525l0.795-0.343v-0.538h-0.858l0.473-1.286l-0.172-0.559h-0.623l0.236-0.45
		l-0.45-0.45l0.9-0.709l-0.129-2.532l-0.815-0.815l0.944-1.158l-0.107-0.451l-0.451-0.128v-0.859l0.623-0.622l-0.342-0.623
		l0.771-1.029l-1.009-0.45l0.623-0.279l-0.667-0.665l0.409-0.215l-0.322-0.322l1.137-1.136l0.044-1.224h-2.274l1.288-0.516
		l0.17-1.437v-0.837l-0.364-1.053l0.623-1.2l-0.151-1.202l-0.665-0.666l0.645-0.644l-0.227-0.225v-0.741l0.371-0.369l-0.811-1.604
		l0.43-0.666l-0.902-0.622l0.386-0.387l-0.127-2.339l0.471-1.008l-0.129-0.344v-0.623h-0.857l0.215-1.18h-0.664l0.921-0.922
		l-0.278-1.225l-0.45-0.45l0.795-0.794l-0.839-0.321v-0.559l-0.493,0.494l0.171,0.559l-0.707,0.707l0.536,0.795l-0.302,0.814
		l-1.008,0.15l0.559,0.558l-0.815,0.451l1.03,0.301l-0.815,0.277v0.538l1.609,0.149l-1.675,1.675l-0.171,0.814l0.171,0.173
		l-1.072,0.771l1.889,1.201l-1.374,1.116l-0.105,0.3l-0.86,0.602h2.082l-0.922,1.309v0.409l-0.344,0.942l0.407,0.709l-1.266,0.9
		l1.245,0.431l-1.503,1.565l0.729,0.192l-0.868,0.869l-0.505,0.247l-0.516,1.589l0.924,0.042l-0.129,1.609l-0.688,0.344l0.397,0.396
		l-0.525,0.57h1.223v0.728l1.589,0.452l-1.933,0.472l-0.9,0.901v0.966h1.588l-0.494,0.881l0.793,1.03l-1.286,0.277l-0.149,0.537
		l-1.052,0.751l-0.13,1.052l-0.299,0.108l-0.129,1.35l-0.215,1.289l-0.387,0.578l2.747,0.257l0.106,0.774l-1.846,0.686l0.613,0.612
		l-0.419,0.696h1.094v0.321h-1.523l-0.794,1.074l1.181-0.15h0.257v0.493l-0.901,0.515l1.158,0.386l-0.655,0.655l0.335,0.097
		l-1.16,0.28l1.653,1.415l-1.244,0.901l0.986,0.215l1.802-0.193l-0.772,0.45l-0.171,0.688l-1.309,0.064l0.278,0.771l-1.051,0.473
		l-0.709,1.31l0.516,0.386v0.449h0.621l-0.32,0.623l0.88,0.151l-0.419,0.418h-1.534l0.664,1.083l0.709,0.279l-0.955,0.954
		l-0.118,0.677h0.645l-0.505,0.505l0.14,0.847h0.387l0.128,0.579h0.429c0,0,0.086,0.15,0.409,0.15c0.321,0,0.623,0,0.623,0
		l-0.152,0.665l-1.587,0.687l0.967,0.58h1.328l-2.467,1.396h1.33l-1.115,0.579l2.788-0.107l-0.986,0.771l0.901,0.237l-1.438,0.386
		l1.565,0.302l-2.144,0.793l1.78,1.137l-1.738,0.258l0.172,1.609l-0.28,0.277l0.784,0.784l-0.397,0.481l1.095,0.559l-0.419,0.42
		L127.821,232.345z"/>
	<linearGradient id="SVGID_5_" gradientUnits="userSpaceOnUse" x1="53.4067" y1="234.1543" x2="53.4067" y2="166.2617">
		<stop  offset="0" style="stop-color:#FFFFFF"/>
		<stop  offset="1" style="stop-color:#783F00"/>
	</linearGradient>
	<path fill="url(#SVGID_5_)" d="M51.486,234.154l1.074-0.106l5.557-1.975l-0.257-0.664l-0.924-0.194l0.88-0.343l-0.687-0.688
		l0.816-0.407v-0.236h-1.31l0.87-0.869v-0.419l-0.328-0.327l0.563-0.562l-0.225-0.762l0.472-0.279l-0.794-0.43l0.633-0.632
		l-0.461-0.463l0.215-1.63l-0.301-0.3l0.58-0.429l-1.117-0.43l1.01-0.751l-0.494-0.235l0.301-0.301l-0.902-0.646l1.03-1.029
		l0.128-0.451l-0.773-0.107l-0.193-1.523l0.687-2.017l-0.901-1.158l1.288-1.866l0.065-1.331l-0.526-0.525l-0.676-0.935l1.298-1.298
		l-0.547-0.718l-0.193-1.138l0.418-0.418l-0.504-0.526l0.794-0.344v-0.536h-0.859l0.473-1.288l-0.172-0.558h-0.622l0.235-0.45
		l-0.45-0.45l0.902-0.709l-0.13-2.532l-0.815-0.814l0.945-1.16l-0.107-0.449l-0.451-0.129v-0.858l0.623-0.622l-0.344-0.623
		l0.773-1.03l-1.009-0.45l0.624-0.278l-0.666-0.666l0.408-0.215l-0.322-0.321l1.137-1.138l0.043-1.223h-2.275l1.288-0.515
		l0.172-1.438v-0.837l-0.366-1.051l0.623-1.202l-0.149-1.2l-0.666-0.666l0.644-0.645l-0.225-0.225v-0.74l0.37-0.37l-0.81-1.604
		l0.428-0.665l-0.901-0.622l0.386-0.386l-0.128-2.339l0.472-1.009l-0.128-0.344v-0.622h-0.858l0.215-1.18h-0.665l0.922-0.924
		l-0.279-1.223l-0.45-0.45l0.793-0.794l-0.836-0.323v-0.557l-0.494,0.493l0.172,0.558l-0.708,0.709l0.537,0.792l-0.3,0.816
		l-1.009,0.15l0.558,0.559l-0.815,0.45l1.03,0.301l-0.815,0.278v0.538l1.609,0.147l-1.674,1.676l-0.171,0.815l0.171,0.171
		l-1.072,0.772l1.888,1.202l-1.374,1.115l-0.107,0.302l-0.858,0.6h2.082l-0.922,1.309v0.407l-0.343,0.945l0.407,0.709l-1.265,0.9
		l1.244,0.429l-1.502,1.566l0.73,0.192l-0.869,0.87l-0.504,0.248l-0.515,1.587l0.923,0.043l-0.129,1.609l-0.687,0.343l0.397,0.397
		l-0.526,0.567h1.224v0.73l1.588,0.45l-1.931,0.472l-0.901,0.901v0.967h1.588l-0.494,0.879l0.794,1.03l-1.288,0.279l-0.149,0.537
		l-1.052,0.75l-0.128,1.051l-0.3,0.107l-0.129,1.353l-0.215,1.286l-0.387,0.581l2.747,0.258l0.107,0.771l-1.845,0.688l0.612,0.611
		l-0.419,0.698h1.094v0.32H49.92l-0.794,1.072l1.18-0.148h0.258v0.491l-0.901,0.518l1.158,0.386l-0.654,0.654l0.333,0.096
		l-1.159,0.279l1.652,1.417l-1.244,0.9l0.986,0.216l1.803-0.193l-0.773,0.45l-0.172,0.686l-1.309,0.065l0.279,0.771l-1.051,0.473
		l-0.709,1.309l0.515,0.386v0.452h0.623l-0.322,0.622l0.88,0.149l-0.419,0.419h-1.535l0.666,1.083l0.708,0.28l-0.955,0.955
		l-0.119,0.676h0.644l-0.504,0.503l0.139,0.849h0.387l0.128,0.578h0.429c0,0,0.086,0.151,0.407,0.151c0.322,0,0.622,0,0.622,0
		l-0.15,0.664l-1.588,0.688l0.966,0.578h1.33l-2.468,1.396h1.331L49.406,226l2.789-0.107l-0.987,0.773l0.901,0.236l-1.437,0.387
		l1.566,0.299l-2.146,0.793l1.781,1.139l-1.738,0.258l0.171,1.609l-0.279,0.279l0.784,0.782l-0.397,0.482l1.094,0.559l-0.418,0.42
		L51.486,234.154z"/>
</g>
<linearGradient id="SVGID_6_" gradientUnits="userSpaceOnUse" x1="24.1514" y1="103.2993" x2="171.8516" y2="103.2993">
	<stop  offset="0" style="stop-color:#663300"/>
	<stop  offset="1" style="stop-color:#663300"/>
</linearGradient>
<path fill="url(#SVGID_6_)" d="M28.648,73.798c1.565,0,10.643,5.322,59.224,6.18c48.58,0.858,66.779-4.978,66.779-6.695
	c0-1.717-6.011-3.09-6.011-3.09c-15.105-3.09-45.489-5.15-81.024-4.121C32.081,67.104,24.7,72.769,24.7,72.769
	s-2.575,16.994,3.433,28.496c10.284,19.686,24.891,37.767,60.426,39.483c35.536,1.715,61.285-46.006,61.285-46.006
	c11.844-18.54,13.475-12.275,14.419-11.33c0.944,0.943,6.586,15.324-1.373,27.637c-7.959,12.313-15.279-1.373-15.279-1.373
	c6.697,17.165,18.713,1.544,18.713,1.544c4.635-7.21,7.209-23.175,4.291-29.183s-7.897-2.747-7.897-2.747
	c-0.856,0.858-4.548,0.429-19.569,21.287c-29.843,41.438-54.589,37.08-54.589,37.08S37.335,133.94,26.931,72.94
	c0,0,12.017-4.463,56.135-5.493c44.118-1.031,60.94,4.463,60.94,4.463s2.231,3.261-5.148,3.261c0,0-27.123-3.261-50.642-2.403
	c-23.518,0.858-43.758,1.979-47.379,2.575L28.648,73.798z"/>
<path fill="#330000" d="M38.785,133.072l-3.663,3.662c3.348,3.348,13.39,6.867,48.924,8.411
	c35.533,1.547,71.241-11.158,71.241-11.158s-1.03,4.292-6.353,6.695c-21.907,9.895-67.12,10.644-67.12,10.644
	s-38.172,0.687-55.104-13.905c0,0-1.374-3.489,3.862-3.489C30.573,133.932,34.836,134.502,38.785,133.072z"/>
<linearGradient id="SVGID_7_" gradientUnits="userSpaceOnUse" x1="81.8843" y1="-3.7935" x2="81.8843" y2="59.7227">
	<stop  offset="0" style="stop-color:#663300"/>
	<stop  offset="0.4298" style="stop-color:#643100"/>
	<stop  offset="0.6421" style="stop-color:#5C2900"/>
	<stop  offset="0.8067" style="stop-color:#4F1C00"/>
	<stop  offset="0.946" style="stop-color:#3D0A00"/>
	<stop  offset="1" style="stop-color:#330000"/>
</linearGradient>
<path fill="url(#SVGID_7_)" d="M84.61-3.793c-13.732,24.891,1.03,22.317,6.18,35.363c10.724,27.167-9.441,28.153-9.441,28.153
	s13.218-7.726-4.635-28.325c0,0-14.763-16.823-1.03-30.556C80.062-3.537,84.61-3.793,84.61-3.793z"/>
<linearGradient id="SVGID_8_" gradientUnits="userSpaceOnUse" x1="98.6807" y1="-15.1235" x2="98.6807" y2="47.7056">
	<stop  offset="0" style="stop-color:#663300"/>
	<stop  offset="0.4298" style="stop-color:#643100"/>
	<stop  offset="0.6421" style="stop-color:#5C2900"/>
	<stop  offset="0.8067" style="stop-color:#4F1C00"/>
	<stop  offset="0.946" style="stop-color:#3D0A00"/>
	<stop  offset="1" style="stop-color:#330000"/>
</linearGradient>
<path fill="url(#SVGID_8_)" d="M98.172,47.706c0,0,25.835-8.068,1.887-33.475c0,0-16.136-12.875,0.344-29.354
	c0,0-21.286,11.845-9.957,26.951c0,0,17.453,18.655,13.217,27.981C102.658,42.026,99.888,45.989,98.172,47.706z"/>
</svg>
